<?xml version="1.0" encoding="UTF-8" standalone="no"?>
<!-- Created with Inkscape (http://www.inkscape.org/) -->

<svg
   xmlns:dc="http://purl.org/dc/elements/1.1/"
   xmlns:cc="http://creativecommons.org/ns#"
   xmlns:rdf="http://www.w3.org/1999/02/22-rdf-syntax-ns#"
   xmlns:svg="http://www.w3.org/2000/svg"
   xmlns="http://www.w3.org/2000/svg"
   xmlns:sodipodi="http://sodipodi.sourceforge.net/DTD/sodipodi-0.dtd"
   xmlns:inkscape="http://www.inkscape.org/namespaces/inkscape"
   width="200"
   height="50"
   id="svg2"
   version="1.1"
   inkscape:version="0.48.4 r9939"
   sodipodi:docname="Octopart original.svg">
  <defs
     id="defs4">
    <clipPath
       id="clipPath3081"
       clipPathUnits="userSpaceOnUse">
      <path
         id="path3083"
         d="m 12.23999,12.23999 767.52,0 0,587.52 -767.52,0 0,-587.52 z"
         inkscape:connector-curvature="0" />
    </clipPath>
    <clipPath
       id="clipPath3055"
       clipPathUnits="userSpaceOnUse">
      <path
         id="path3057"
         d="m 231.364,321.055 326.146,0 0,69.538 -326.146,0 0,-69.538 z"
         inkscape:connector-curvature="0" />
    </clipPath>
  </defs>
  <sodipodi:namedview
     id="base"
     pagecolor="#ffffff"
     bordercolor="#666666"
     borderopacity="1.0"
     inkscape:pageopacity="0.0"
     inkscape:pageshadow="2"
     inkscape:zoom="2.3758788"
     inkscape:cx="153.23251"
     inkscape:cy="18.404217"
     inkscape:document-units="px"
     inkscape:current-layer="g3053"
     showgrid="false"
     inkscape:window-width="1429"
     inkscape:window-height="444"
     inkscape:window-x="0"
     inkscape:window-y="28"
     inkscape:window-maximized="0" />
  <metadata
     id="metadata7">
    <rdf:RDF>
      <cc:Work
         rdf:about="">
        <dc:format>image/svg+xml</dc:format>
        <dc:type
           rdf:resource="http://purl.org/dc/dcmitype/StillImage" />
        <dc:title></dc:title>
      </cc:Work>
    </rdf:RDF>
  </metadata>
  <g
     inkscape:label="Layer 1"
     inkscape:groupmode="layer"
     id="layer1"
     transform="translate(0,-1002.3622)">
    <g
       transform="matrix(1.25,0,0,-1.25,-162.34463,899.13568)"
       inkscape:label="Octopart_Brochure_Distributors"
       id="g3047">
      <g
         transform="matrix(0.46375581,0,0,0.46375581,29.46323,-269.61869)"
         id="g3051">
        <g
           clip-path="none"
           id="g3053">
          <path
             id="path3059"
             style="fill:#d3d7cf;fill-opacity:1;fill-rule:nonzero;stroke:none"
             d="m 257.07419,387.14678 c -4.734,0 -8.712,-1.733 -11.937,-5.195 -3.225,-3.465 -4.836,-7.867 -4.836,-13.207 0,-5.952 2.029,-10.66 6.089,-14.123 3.156,-2.708 6.774,-4.06 10.859,-4.06 4.616,0 8.547,1.755 11.795,5.269 3.248,3.51 4.872,7.84 4.872,12.987 0,5.121 -1.635,9.457 -4.907,13.006 -3.272,3.547 -7.249,5.323 -11.935,5.323 m 0.139,9.86 c 7.243,0 13.471,-2.747 18.684,-8.237 5.212,-5.491 7.819,-12.184 7.819,-20.08 0,-7.824 -2.571,-14.445 -7.714,-19.861 -5.144,-5.419 -11.384,-8.127 -18.719,-8.127 -7.687,0 -14.071,2.782 -19.155,8.346 -5.086,5.562 -7.627,12.17 -7.627,19.824 0,5.125 1.184,9.838 3.552,14.14 2.37,4.301 5.625,7.709 9.769,10.222 4.144,2.514 8.607,3.773 13.391,3.773"
             inkscape:connector-curvature="0" />
          <path
             id="path3061"
             style="fill:#d3d7cf;fill-opacity:1;fill-rule:nonzero;stroke:none"
             d="m 326.23309,373.85098 -7.925,-4.478 c -1.49,1.605 -2.963,2.72 -4.418,3.345 -1.455,0.624 -3.16,0.937 -5.114,0.937 -3.562,0 -6.443,-1.126 -8.644,-3.371 -2.199,-2.247 -3.298,-5.127 -3.298,-8.638 0,-3.414 1.059,-6.201 3.182,-8.362 2.122,-2.161 4.909,-3.242 8.359,-3.242 4.266,0 7.588,1.513 9.968,4.541 l 7.519,-5.353 c -4.083,-5.514 -9.845,-8.269 -17.288,-8.269 -6.695,0 -11.938,2.068 -15.73,6.207 -3.79,4.139 -5.686,8.984 -5.686,14.535 0,3.846 0.919,7.386 2.76,10.626 1.841,3.237 4.41,5.78 7.707,7.632 3.296,1.848 6.986,2.775 11.064,2.775 3.774,0 7.164,-0.771 10.169,-2.311 3.005,-1.541 5.464,-3.732 7.375,-6.574"
             inkscape:connector-curvature="0" />
          <path
             id="path3063"
             style="fill:#d3d7cf;fill-opacity:1;fill-rule:nonzero;stroke:none"
             d="m 334.88139,396.35798 9.552,0 0,-14.661 5.706,0 0,-8.432 -5.706,0 0,-31.266 -9.552,0 0,31.266 -4.838,0 0,8.432 4.838,0 0,14.661 z"
             inkscape:connector-curvature="0" />
          <path
             id="path3065"
             style="fill:#d3d7cf;fill-opacity:1;fill-rule:nonzero;stroke:none"
             d="m 424.35799,373.65468 c -2.961,0 -5.414,-1.081 -7.365,-3.237 -1.949,-2.157 -2.921,-4.977 -2.921,-8.46 0,-3.555 0.972,-6.43 2.921,-8.623 1.951,-2.195 4.404,-3.292 7.365,-3.292 2.864,0 5.279,1.115 7.24,3.347 1.961,2.23 2.941,5.074 2.941,8.532 0,3.431 -0.964,6.245 -2.89,8.441 -1.926,2.193 -4.358,3.292 -7.291,3.292 m -9.912,8.043 0,-4.309 c 1.717,1.781 3.573,3.118 5.569,4.009 1.996,0.892 4.132,1.338 6.408,1.338 4.943,0 9.144,-1.96 12.604,-5.881 3.457,-3.92 5.188,-8.945 5.188,-15.079 0,-5.915 -1.789,-10.864 -5.363,-14.844 -3.575,-3.981 -7.81,-5.97 -12.709,-5.97 -2.182,0 -4.213,0.407 -6.093,1.217 -1.881,0.811 -3.749,2.138 -5.604,3.978 l 0,-18.688 -9.553,0 0,54.229 9.553,0 z"
             inkscape:connector-curvature="0" />
          <path
             id="path3067"
             style="fill:#d3d7cf;fill-opacity:1;fill-rule:nonzero;stroke:none"
             d="m 468.04079,373.65468 c -2.916,0 -5.334,-1.099 -7.26,-3.292 -1.928,-2.196 -2.891,-5.01 -2.891,-8.441 0,-3.458 0.979,-6.302 2.942,-8.532 1.96,-2.232 4.375,-3.347 7.241,-3.347 2.957,0 5.41,1.097 7.36,3.292 1.949,2.193 2.924,5.068 2.924,8.623 0,3.483 -0.975,6.303 -2.924,8.46 -1.95,2.156 -4.413,3.237 -7.392,3.237 m 9.945,8.043 9.552,0 0,-39.699 -9.552,0 0,4.166 c -1.859,-1.845 -3.725,-3.171 -5.595,-3.985 -1.872,-0.811 -3.899,-1.218 -6.083,-1.218 -4.902,0 -9.146,1.989 -12.723,5.97 -3.579,3.98 -5.369,8.929 -5.369,14.844 0,6.134 1.73,11.159 5.194,15.079 3.462,3.921 7.67,5.881 12.619,5.881 2.275,0 4.414,-0.446 6.414,-1.338 1.998,-0.891 3.845,-2.228 5.543,-4.009 l 0,4.309 z"
             inkscape:connector-curvature="0" />
          <path
             id="path3069"
             style="fill:#d3d7cf;fill-opacity:1;fill-rule:nonzero;stroke:none"
             d="m 493.02719,381.69748 8.31,0 0,-4.97 c 0.86,1.967 2.005,3.458 3.436,4.478 1.43,1.019 2.994,1.53 4.695,1.53 1.204,0 2.46,-0.34 3.778,-1.019 l -2.898,-8.55 c -1.092,0.583 -1.99,0.877 -2.692,0.877 -1.431,0 -2.642,-0.95 -3.63,-2.85 -0.988,-1.901 -1.485,-5.627 -1.485,-11.182 l 0.036,-1.936 0,-16.076 -9.55,0 0,39.698 z"
             inkscape:connector-curvature="0" />
          <path
             id="path3071"
             style="fill:#d3d7cf;fill-opacity:1;fill-rule:nonzero;stroke:none"
             d="m 521.21089,396.35798 9.552,0 0,-14.661 5.706,0 0,-8.432 -5.706,0 0,-31.266 -9.552,0 0,31.266 -4.837,0 0,8.432 4.837,0 0,14.661 z"
             inkscape:connector-curvature="0" />
          <path
             id="path3073"
             style="fill:#d3d7cf;fill-opacity:1;fill-rule:nonzero;stroke:none"
             d="m 376.35439,373.39528 c -2.922,0 -5.355,-1.089 -7.299,-3.266 -1.945,-2.177 -2.917,-4.962 -2.917,-8.356 0,-3.493 0.961,-6.32 2.882,-8.486 1.921,-2.164 4.354,-3.245 7.3,-3.245 2.945,0 5.395,1.094 7.352,3.282 1.956,2.19 2.934,5.005 2.934,8.449 0,3.442 -0.962,6.239 -2.883,8.393 -1.922,2.152 -4.378,3.229 -7.369,3.229 m -0.208,9.34 c 3.581,0 6.95,-0.938 10.101,-2.811 3.152,-1.875 5.613,-4.419 7.381,-7.633 1.769,-3.214 2.652,-6.683 2.652,-10.406 0,-3.75 -0.889,-7.255 -2.671,-10.516 -1.778,-3.264 -4.205,-5.815 -7.275,-7.651 -3.07,-1.837 -6.456,-2.757 -10.153,-2.757 -5.446,0 -10.092,2.026 -13.943,6.079 -3.85,4.054 -5.775,8.978 -5.775,14.772 0,6.207 2.175,11.38 6.525,15.519 3.815,3.602 8.201,5.404 13.158,5.404"
             inkscape:connector-curvature="0" />
          <path
             id="path3075"
             style="fill:#176fc1;fill-opacity:1;fill-rule:nonzero;stroke:none"
             d="m 376.24599,354.39918 c -4.381,0 -7.932,3.347 -7.933,7.477 10e-4,4.129 3.552,7.476 7.933,7.476 4.381,0 7.934,-3.347 7.934,-7.476 0,-4.13 -3.553,-7.477 -7.934,-7.477 m 25.881,2.732 0,9.491 -8.775,0 c -0.383,1.418 -0.933,2.765 -1.628,4.021 l 6.178,6.178 -6.71,6.711 -6.094,-6.094 c -1.277,0.747 -2.654,1.337 -4.107,1.745 l 0,8.574 -9.49,0 0,-8.574 c -1.452,-0.408 -2.829,-0.998 -4.106,-1.745 l -6.094,6.094 -6.711,-6.711 6.179,-6.179 c -0.695,-1.255 -1.244,-2.602 -1.627,-4.02 l -8.777,0 0,-9.491 8.777,0 c 0.383,-1.418 0.933,-2.766 1.627,-4.021 l -6.179,-6.179 6.711,-6.711 6.094,6.094 c 1.277,-0.747 2.654,-1.337 4.106,-1.745 l 0,-8.574 9.49,0 0,8.574 c 1.453,0.408 2.83,0.998 4.107,1.745 l 6.094,-6.094 6.71,6.711 -6.178,6.178 c 0.695,1.256 1.244,2.604 1.627,4.022 l 8.776,0 z"
             inkscape:connector-curvature="0" />
        </g>
      </g>
    </g>
  </g>
</svg>
